<svg xmlns="http://www.w3.org/2000/svg" xmlns:xlink="http://www.w3.org/1999/xlink" viewBox="0,0,256,256" width="64px" height="64px"><defs><linearGradient x1="32" y1="12.664" x2="32" y2="52.422" gradientUnits="userSpaceOnUse" id="color-1"><stop offset="0" stop-color="#1a6dff"></stop><stop offset="1" stop-color="#c822ff"></stop></linearGradient><linearGradient x1="32.013" y1="16.83" x2="32.013" y2="47.526" gradientUnits="userSpaceOnUse" id="color-2"><stop offset="0" stop-color="#6dc7ff"></stop><stop offset="1" stop-color="#e6abff"></stop></linearGradient></defs><g transform="translate(-1.28,-1.28) scale(1.01,1.01)"><g fill="#e3e5ff" fill-rule="nonzero" stroke="none" stroke-width="1" stroke-linecap="butt" stroke-linejoin="miter" stroke-miterlimit="10" stroke-dasharray="" stroke-dashoffset="0" font-family="none" font-weight="none" font-size="none" text-anchor="none" style="mix-blend-mode: normal"><path d="M128,254.73267c-69.99252,0 -126.73267,-56.74015 -126.73267,-126.73267v0c0,-69.99252 56.74015,-126.73267 126.73267,-126.73267v0c69.99252,0 126.73267,56.74015 126.73267,126.73267v0c0,69.99252 -56.74015,126.73267 -126.73267,126.73267z" id="shape"></path></g><g fill="none" fill-rule="nonzero" stroke="none" stroke-width="1" stroke-linecap="butt" stroke-linejoin="miter" stroke-miterlimit="10" stroke-dasharray="" stroke-dashoffset="0" font-family="none" font-weight="none" font-size="none" text-anchor="none" style="mix-blend-mode: normal"><g transform="scale(4,4)"><path d="M24.982,51c-1.273,0 -2.547,-0.475 -3.524,-1.429l-14.57,-14.207c-0.573,-0.558 -0.888,-1.303 -0.888,-2.096c0,-0.793 0.315,-1.538 0.889,-2.097l2.82,-2.75c1.166,-1.137 3.063,-1.137 4.228,0.001l10.259,10.003c0.395,0.385 1.058,0.38 1.446,-0.012l24.341,-24.526c1.147,-1.156 3.044,-1.186 4.228,-0.068l2.867,2.705c0.582,0.55 0.91,1.29 0.923,2.083c0.013,0.793 -0.291,1.542 -0.854,2.109l-28.582,28.798c-0.981,0.99 -2.282,1.486 -3.583,1.486zM11.822,29.564c-0.26,0 -0.52,0.097 -0.717,0.29l-2.82,2.75c-0.184,0.179 -0.285,0.414 -0.285,0.664c0,0.25 0.102,0.485 0.285,0.664l14.569,14.208c1.19,1.163 3.116,1.148 4.291,-0.034l28.581,-28.798c0.181,-0.182 0.277,-0.418 0.273,-0.668c-0.004,-0.25 -0.109,-0.485 -0.296,-0.661l-2.867,-2.705c-0.401,-0.381 -1.047,-0.369 -1.435,0.022l-24.34,24.527c-1.166,1.173 -3.079,1.189 -4.263,0.034l-10.258,-10.004c-0.197,-0.193 -0.457,-0.289 -0.718,-0.289z" fill="url(#color-1)"></path><path d="M24.977,46.609c-0.489,0 -0.98,-0.181 -1.368,-0.544l-13.291,-12.462l1.367,-1.459l13.292,12.461l27.316,-27.315l1.414,1.414l-27.316,27.315c-0.391,0.392 -0.902,0.59 -1.414,0.59z" fill="url(#color-2)"></path></g></g></g></svg>